<?xml version="1.0" encoding="utf-8"?>
<!-- Generator: Adobe Illustrator 16.0.0, SVG Export Plug-In . SVG Version: 6.00 Build 0)  -->
<!DOCTYPE svg PUBLIC "-//W3C//DTD SVG 1.1//EN" "http://www.w3.org/Graphics/SVG/1.1/DTD/svg11.dtd">
<svg version="1.1" id="Layer_1" xmlns="http://www.w3.org/2000/svg" xmlns:xlink="http://www.w3.org/1999/xlink" x="0px" y="0px"
	 width="60.25px" height="57.038px" viewBox="0 0 60.25 57.038" enable-background="new 0 0 60.25 57.038" xml:space="preserve">
<path fill="#FFD100" d="M51.6,2.789c1.516,2.414,6.092,10.512,6.092,20.296c0,17.387-12.294,31.532-27.404,31.532
	c-15.11,0-27.403-14.146-27.403-31.532c0-9.782,4.577-17.882,6.093-20.296c0.914,0.654,2.602,1.939,4.45,3.732
	c2.657,2.578,4.629,5.208,5.862,7.819l1.969,4.169l1.699-4.286c2.242-5.657,5.893-9.883,7.33-11.41
	c1.437,1.528,5.088,5.753,7.33,11.41l1.698,4.286l1.97-4.169c1.232-2.61,3.206-5.241,5.863-7.819
	C48.997,4.728,50.686,3.443,51.6,2.789 M30.288,0l-0.786,0.756c-0.249,0.24-5.467,5.324-8.403,12.73
	c-1.338-2.832-3.44-5.647-6.278-8.4c-2.847-2.762-5.363-4.397-5.468-4.465L8.435,0.028L7.81,0.923
	C7.526,1.329,0.885,10.987,0.885,23.085c0,18.49,13.19,33.532,29.403,33.532c16.214,0,29.404-15.042,29.404-33.532
	c0-12.098-6.643-21.756-6.926-22.162l-0.623-0.895l-0.918,0.593c-0.105,0.068-2.623,1.702-5.47,4.465
	c-2.838,2.753-4.942,5.568-6.279,8.4c-2.936-7.406-8.153-12.49-8.402-12.73L30.288,0z"/>
</svg>
